# xmcd
#
# Track frame offsets:
#	150
#	24977
#	52196
#	90125
#	121793
#	147454
#	163982
#	188652
#	213260
#	232809
#
# Disc length: 3337 seconds
#
# Revision: 0
# Processed by: cddbd v1.5.2PL0 Copyright (c) Steve Scherf et al.
# Submitted via: EasyCDDAExtractor 4.5.2.1
#
DISCID=7c0d070a
DTITLE=史辰蘭 - 自己的房間
DYEAR=2002
DGENRE=Vocal
TTITLE0=一整天
TTITLE1=停止
TTITLE2=綠色的呼吸
TTITLE3=飛行
TTITLE4=冬夜裡
TTITLE5=沸騰
TTITLE6=放逐
TTITLE7=上一個禮拜
TTITLE8=漫遊
TTITLE9=在自己的房間裡
EXTD=
EXTT0=
EXTT1=
EXTT2=
EXTT3=
EXTT4=
EXTT5=
EXTT6=
EXTT7=
EXTT8=
EXTT9=
PLAYORDER=
